<svg width="43" height="37" viewBox="0 0 43 37" fill="none" xmlns="http://www.w3.org/2000/svg">
<path fill-rule="evenodd" clip-rule="evenodd" d="M16.869 24.3094L16.1576 34.2983C16.5408 34.3011 16.9194 34.2154 17.2641 34.048C17.6088 33.8806 17.9101 33.6357 18.1448 33.3328L22.9168 28.7792L32.807 35.9979C33.1207 36.2745 33.5082 36.4539 33.9221 36.5141C34.336 36.5743 34.7585 36.5128 35.138 36.3371C35.5175 36.1614 35.8376 35.8789 36.0594 35.5243C36.2812 35.1697 36.3951 34.7582 36.3871 34.34L42.8778 3.97478C43.4527 1.28869 41.9083 0.239526 40.1497 0.911046L1.9968 15.4955C-0.60744 16.5028 -0.567565 17.9507 1.55402 18.6013L11.3079 21.6443L33.9717 7.47937C35.0377 6.76588 36.0073 7.16447 35.2098 7.87796L16.869 24.3094Z" fill="#303030"/>
</svg>
