<svg width="22" height="22" viewBox="0 0 22 22" fill="none" xmlns="http://www.w3.org/2000/svg">
<path d="M4.5 7H5V7.5C5 7.76522 5.10536 8.01957 5.29289 8.20711C5.48043 8.39464 5.73478 8.5 6 8.5C6.26522 8.5 6.51957 8.39464 6.70711 8.20711C6.89464 8.01957 7 7.76522 7 7.5V7H7.5C7.76522 7 8.01957 6.89464 8.20711 6.70711C8.39464 6.51957 8.5 6.26522 8.5 6C8.5 5.73478 8.39464 5.48043 8.20711 5.29289C8.01957 5.10536 7.76522 5 7.5 5H7V4.5C7 4.23478 6.89464 3.98043 6.70711 3.79289C6.51957 3.60536 6.26522 3.5 6 3.5C5.73478 3.5 5.48043 3.60536 5.29289 3.79289C5.10536 3.98043 5 4.23478 5 4.5V5H4.5C4.23478 5 3.98043 5.10536 3.79289 5.29289C3.60536 5.48043 3.5 5.73478 3.5 6C3.5 6.26522 3.60536 6.51957 3.79289 6.70711C3.98043 6.89464 4.23478 7 4.5 7ZM3.88 18.12C4.06736 18.3063 4.32081 18.4108 4.585 18.4108C4.84919 18.4108 5.10264 18.3063 5.29 18.12L6 17.41L6.71 18.12C6.89736 18.3063 7.15081 18.4108 7.415 18.4108C7.67919 18.4108 7.93264 18.3063 8.12 18.12C8.30625 17.9326 8.41079 17.6792 8.41079 17.415C8.41079 17.1508 8.30625 16.8974 8.12 16.71L7.41 16L8.12 15.29C8.28383 15.0987 8.36943 14.8526 8.35971 14.6009C8.34999 14.3493 8.24566 14.1105 8.06756 13.9324C7.88947 13.7543 7.65073 13.65 7.39905 13.6403C7.14738 13.6306 6.9013 13.7162 6.71 13.88L6 14.59L5.29 13.88C5.0987 13.7162 4.85262 13.6306 4.60095 13.6403C4.34927 13.65 4.11053 13.7543 3.93244 13.9324C3.75434 14.1105 3.65001 14.3493 3.64029 14.6009C3.63057 14.8526 3.71617 15.0987 3.88 15.29L4.59 16L3.88 16.71C3.69375 16.8974 3.58921 17.1508 3.58921 17.415C3.58921 17.6792 3.69375 17.9326 3.88 18.12ZM19 0H3C2.20435 0 1.44129 0.31607 0.87868 0.87868C0.31607 1.44129 0 2.20435 0 3V19C0 19.7956 0.31607 20.5587 0.87868 21.1213C1.44129 21.6839 2.20435 22 3 22H19C19.7956 22 20.5587 21.6839 21.1213 21.1213C21.6839 20.5587 22 19.7956 22 19V3C22 2.20435 21.6839 1.44129 21.1213 0.87868C20.5587 0.31607 19.7956 0 19 0ZM10 20H3C2.73478 20 2.48043 19.8946 2.29289 19.7071C2.10536 19.5196 2 19.2652 2 19V12H10V20ZM10 10H2V3C2 2.73478 2.10536 2.48043 2.29289 2.29289C2.48043 2.10536 2.73478 2 3 2H10V10ZM20 19C20 19.2652 19.8946 19.5196 19.7071 19.7071C19.5196 19.8946 19.2652 20 19 20H12V12H20V19ZM20 10H12V2H19C19.2652 2 19.5196 2.10536 19.7071 2.29289C19.8946 2.48043 20 2.73478 20 3V10ZM14.5 15.5H17.5C17.7652 15.5 18.0196 15.3946 18.2071 15.2071C18.3946 15.0196 18.5 14.7652 18.5 14.5C18.5 14.2348 18.3946 13.9804 18.2071 13.7929C18.0196 13.6054 17.7652 13.5 17.5 13.5H14.5C14.2348 13.5 13.9804 13.6054 13.7929 13.7929C13.6054 13.9804 13.5 14.2348 13.5 14.5C13.5 14.7652 13.6054 15.0196 13.7929 15.2071C13.9804 15.3946 14.2348 15.5 14.5 15.5ZM17.5 5H14.5C14.2348 5 13.9804 5.10536 13.7929 5.29289C13.6054 5.48043 13.5 5.73478 13.5 6C13.5 6.26522 13.6054 6.51957 13.7929 6.70711C13.9804 6.89464 14.2348 7 14.5 7H17.5C17.7652 7 18.0196 6.89464 18.2071 6.70711C18.3946 6.51957 18.5 6.26522 18.5 6C18.5 5.73478 18.3946 5.48043 18.2071 5.29289C18.0196 5.10536 17.7652 5 17.5 5ZM14.5 18.5H17.5C17.7652 18.5 18.0196 18.3946 18.2071 18.2071C18.3946 18.0196 18.5 17.7652 18.5 17.5C18.5 17.2348 18.3946 16.9804 18.2071 16.7929C18.0196 16.6054 17.7652 16.5 17.5 16.5H14.5C14.2348 16.5 13.9804 16.6054 13.7929 16.7929C13.6054 16.9804 13.5 17.2348 13.5 17.5C13.5 17.7652 13.6054 18.0196 13.7929 18.2071C13.9804 18.3946 14.2348 18.5 14.5 18.5Z" fill="#242225"/>
</svg>
