<svg width="32" height="32" viewBox="0 0 32 32" fill="none" xmlns="http://www.w3.org/2000/svg">
<path d="M16 10.5335C14.9188 10.5335 13.8619 10.8541 12.963 11.4548C12.064 12.0555 11.3633 12.9093 10.9495 13.9082C10.5358 14.9071 10.4275 16.0063 10.6384 17.0667C10.8494 18.1271 11.37 19.1012 12.1346 19.8658C12.8991 20.6302 13.8731 21.1508 14.9335 21.3618C15.994 21.5727 17.0931 21.4644 18.092 21.0507C19.091 20.637 19.9447 19.9363 20.5454 19.0374C21.1462 18.1383 21.4667 17.0814 21.4667 16.0002C21.4684 15.2818 21.3283 14.5702 21.0542 13.9062C20.78 13.2421 20.3775 12.6387 19.8695 12.1308C19.3615 11.6228 18.7582 11.2202 18.0942 10.9461C17.43 10.672 16.7184 10.5318 16 10.5335ZM16 19.5602C15.2959 19.5602 14.6076 19.3514 14.0222 18.9602C13.4368 18.5691 12.9805 18.0131 12.7111 17.3626C12.4416 16.712 12.3711 15.9963 12.5085 15.3056C12.6458 14.6151 12.9849 13.9807 13.4827 13.4828C13.9806 12.985 14.615 12.646 15.3055 12.5086C15.9962 12.3712 16.7119 12.4417 17.3624 12.7112C18.013 12.9806 18.569 13.437 18.96 14.0223C19.3512 14.6078 19.56 15.296 19.56 16.0002C19.56 16.9443 19.185 17.8499 18.5174 18.5175C17.8498 19.1851 16.9442 19.5602 16 19.5602ZM22.9734 10.3068C22.9734 10.5706 22.8952 10.8284 22.7487 11.0476C22.6022 11.2669 22.3939 11.4378 22.1503 11.5387C21.9067 11.6396 21.6386 11.666 21.3799 11.6146C21.1212 11.5631 20.8838 11.4361 20.6972 11.2497C20.5108 11.0632 20.3838 10.8256 20.3323 10.567C20.2808 10.3083 20.3072 10.0402 20.4082 9.79661C20.5091 9.55298 20.68 9.34474 20.8992 9.19824C21.1186 9.05172 21.3763 8.97352 21.64 8.97352C21.9936 8.97352 22.3328 9.114 22.5828 9.36405C22.833 9.61409 22.9734 9.95324 22.9734 10.3068ZM26.5867 11.6402C26.6255 9.98262 26.0072 8.37698 24.8667 7.17352C23.6696 6.01844 22.0632 5.38546 20.4 5.41352C18.6667 5.33352 13.3334 5.33352 11.6001 5.41352C9.94301 5.37764 8.33843 5.99553 7.13339 7.13352C5.99291 8.33698 5.37462 9.94262 5.41339 11.6002C5.33339 13.3335 5.33339 18.6668 5.41339 20.4002C5.37462 22.0578 5.99291 23.6634 7.13339 24.8668C8.33843 26.0048 9.94301 26.6227 11.6001 26.5868C13.36 26.6935 18.64 26.6935 20.4 26.5868C22.0576 26.6256 23.6632 26.0074 24.8667 24.8668C26.0072 23.6634 26.6255 22.0578 26.5867 20.4002C26.6667 18.6668 26.6667 13.3335 26.5867 11.6002V11.6402ZM24.32 22.3068C24.139 22.7655 23.8658 23.1819 23.5171 23.5306C23.1684 23.8792 22.752 24.1524 22.2934 24.3335C20.2235 24.752 18.1075 24.8955 16 24.7602C13.8971 24.8956 11.7854 24.7522 9.72006 24.3335C9.26149 24.1524 8.84497 23.8792 8.49635 23.5306C8.14773 23.1819 7.87443 22.7655 7.69339 22.3068C7.13339 20.8935 7.25339 17.5602 7.25339 16.0135C7.25339 14.4668 7.13339 11.1202 7.69339 9.72018C7.86933 9.25708 8.14067 8.83614 8.48982 8.48469C8.83897 8.13325 9.25811 7.85914 9.72006 7.68018C11.7854 7.26149 13.8971 7.11802 16 7.25352C18.1075 7.11825 20.2235 7.26172 22.2934 7.68018C22.752 7.86122 23.1684 8.13452 23.5171 8.48314C23.8658 8.83176 24.139 9.24828 24.32 9.70685C24.88 11.1202 24.7467 14.4535 24.7467 16.0002C24.7467 17.5468 24.88 20.8935 24.32 22.2935V22.3068Z" fill="white"/>
</svg>
