<svg width="151" height="52" viewBox="0 0 151 52" fill="none" xmlns="http://www.w3.org/2000/svg">
<path fill-rule="evenodd" clip-rule="evenodd" d="M22.9895 21.0923V10.056C22.9895 6.92528 21.3136 5.43901 18.4992 5.43901C16.1591 5.43901 14.1354 6.83047 13.2498 8.22176C12.6806 6.48252 11.2576 5.43901 9.01247 5.43901C6.67232 5.43901 4.64863 6.89363 4.01606 7.81065V5.81862H0V21.0923H4.01606V10.815C4.61697 9.96116 5.78696 9.01246 7.17825 9.01246C8.82267 9.01246 9.45507 10.0243 9.45507 11.4474V21.0923H13.5028V10.7834C14.072 9.96115 15.242 9.01246 16.665 9.01246C18.3094 9.01246 18.9418 10.0243 18.9418 11.4474L18.942 21.0923H22.9895ZM34.0259 21.4717C28.9979 21.4717 25.9621 17.8035 25.9621 13.4396C25.9621 9.10729 28.9978 5.43917 34.0259 5.43917C39.0854 5.43917 42.1213 9.10746 42.1213 13.4396C42.1213 17.8035 39.0856 21.4717 34.0259 21.4717ZM34.0259 17.8985C36.524 17.8985 37.9471 15.8429 37.9471 13.4396C37.9471 11.068 36.5241 9.01246 34.0259 9.01246C31.5276 9.01246 30.1363 11.068 30.1363 13.4396C30.1363 15.8429 31.5277 17.8985 34.0259 17.8985ZM59.4188 21.0923V10.3089C59.4188 7.33639 57.8061 5.43901 54.4541 5.43901C51.956 5.43901 50.0903 6.64066 49.1099 7.81065V5.81862H45.0937V21.0923H49.1099V10.815C49.774 9.898 51.0073 9.01246 52.5884 9.01246C54.2959 9.01246 55.4028 9.73986 55.4028 11.8585V21.0923H59.4188ZM70.4867 21.4717C65.4588 21.4717 62.4229 17.8035 62.4229 13.4396C62.4229 9.10729 65.4586 5.43917 70.4867 5.43917C75.5462 5.43917 78.5821 9.10746 78.5821 13.4396C78.5821 17.8035 75.5464 21.4717 70.4867 21.4717ZM70.4867 17.8985C72.9848 17.8985 74.4079 15.8429 74.4079 13.4396C74.4079 11.068 72.985 9.01246 70.4867 9.01246C67.9884 9.01246 66.5971 11.068 66.5971 13.4396C66.5971 15.8429 67.9885 17.8985 70.4867 17.8985ZM85.5706 16.1907C86.2346 17.1711 87.7209 17.8983 89.0174 17.8983C91.3575 17.8983 92.9069 16.1274 92.9069 13.4711C92.9069 10.8149 91.3575 9.0123 89.0174 9.0123C87.7209 9.0123 86.2346 9.77118 85.5706 10.7832V16.1907ZM85.5706 21.0923H81.5545V0H85.5706V7.77915C86.7722 6.22971 88.4798 5.43901 90.2823 5.43901C94.1719 5.43901 97.0496 8.47471 97.0496 13.4711C97.0496 18.5624 94.1404 21.4716 90.2823 21.4716C88.4483 21.4716 86.7722 20.6494 85.5706 19.1314V21.0923ZM113.272 21.0923H109.256V19.5112C108.212 20.7445 106.41 21.4717 104.418 21.4717C101.983 21.4717 99.1052 19.8273 99.1052 16.4122C99.1052 12.8389 101.983 11.4791 104.418 11.4791C106.442 11.4791 108.244 12.1432 109.256 13.3448V11.2893C109.256 9.73985 107.928 8.72785 105.904 8.72785C104.26 8.72785 102.742 9.32875 101.445 10.5304L99.9272 7.84247C101.793 6.19806 104.196 5.43917 106.6 5.43917C110.078 5.43917 113.272 6.83064 113.272 11.2261L113.272 21.0923ZM106.03 18.7522C107.327 18.7522 108.592 18.3094 109.256 17.424V15.5267C108.592 14.6413 107.327 14.1985 106.03 14.1985C104.449 14.1985 103.153 15.0207 103.153 16.507C103.153 17.9299 104.449 18.7522 106.03 18.7522ZM131.581 21.0923V10.3089C131.581 7.33639 129.969 5.43901 126.617 5.43901C124.119 5.43901 122.253 6.64066 121.272 7.81065V5.81862H117.256V21.0923H121.272V10.815C121.937 9.898 123.17 9.01246 124.751 9.01246C126.459 9.01246 127.565 9.73986 127.565 11.8585V21.0923H131.581ZM150.492 21.0923L144.262 12.7439L150.302 5.81862H145.369L139.582 12.6174V0H135.566V21.0923H139.582V17.1711L141.416 15.2105L145.464 21.0923H150.492Z" fill="black"/>
<path fill-rule="evenodd" clip-rule="evenodd" d="M140.663 35.273H143.558V44.4798H143.721L147.485 40.0572L150.155 40.0502L146.026 44.8844L151 50.93H147.666L143.599 45.3029H143.558V50.93H140.663V35.273ZM3.05603 35.9732V44.5587C3.05603 47.4835 3.92196 49.0821 6.34833 49.0821C8.67035 49.0821 9.59892 47.1438 9.59892 44.7279V35.9732H12.3347V45.2625C12.3347 49.0394 9.86084 51.1794 6.2624 51.1794C2.14234 51.1794 0 49.189 0 45.113L0.000143938 35.9732H3.05603ZM18.7293 41.504C19.7089 40.4803 21.0722 39.9888 22.44 39.9888C24.9765 39.9888 26.3189 41.352 26.3189 44.0427V50.9206L23.4405 50.9207V44.3662C23.4405 42.8695 22.7693 41.8865 21.2703 41.8865C19.8607 41.8865 18.7536 42.8057 18.7536 44.5585V50.9206L15.8716 50.9207V40.2427H18.7293V41.504ZM29.7063 50.9207H32.5895V40.2427H29.7063V50.9207ZM29.4235 37.0408C29.4235 36.2304 30.1156 35.3957 31.0952 35.3957C32.0922 35.3957 32.8689 36.2083 32.8689 37.0408C32.8689 37.9577 32.2012 38.8341 31.1369 38.8341C30.1168 38.8341 29.4235 37.9577 29.4235 37.0408ZM38.9677 50.9207L34.3539 40.1975H37.4084C38.3428 42.6539 39.312 44.9644 40.2208 47.932L40.2649 47.9322C41.2445 44.9644 42.1661 42.6541 43.1619 40.1976L45.8664 40.1975L40.9812 50.9207H38.9677ZM54.4451 44.3025C54.5575 42.6749 53.9709 41.5678 52.5439 41.5678C50.8895 41.5678 50.1477 42.8697 50.179 44.3025H54.4451ZM50.1314 45.8397C50.0665 47.8486 51.4969 49.3407 53.2962 49.3407C54.365 49.3407 55.4871 48.9778 56.206 48.4852L57.029 49.9818C55.5545 50.8351 54.0126 51.1794 52.7779 51.1794C49.503 51.1794 47.0547 48.8922 47.0547 45.3692C47.0547 42.0792 49.4799 39.9891 52.582 39.9891C55.9648 39.9891 57.3755 42.6566 57.1623 45.8399L50.1314 45.8397ZM62.8208 42.1218H62.8613L63.4479 41.2895C63.7703 40.8177 64.4218 39.9888 65.3108 39.9888C65.9611 39.9888 66.6579 40.3307 67.2654 40.9474L66.1779 42.9123C65.7014 42.6747 65.3966 42.5494 64.8147 42.5494C63.8166 42.5494 62.8416 43.34 62.8416 45.6447V50.9204L59.9493 50.9207V40.2427H62.8208V42.1218ZM74.9616 42.2495C74.3125 41.78 73.6401 41.5678 73.1161 41.5678C72.467 41.5678 71.8154 41.9295 71.8154 42.6563C71.8154 43.5107 72.8588 44.0033 74.0714 44.8751C75.6155 46.0124 76.0665 47.1218 76.0665 48.099C76.0665 49.5992 74.3948 51.1792 72.0136 51.1792C70.5158 51.1792 69.4111 50.6645 68.3944 49.9609L69.3044 48.4852C69.9513 49.0011 70.8821 49.51 71.6612 49.51C72.4912 49.51 73.2251 49.0823 73.2251 48.1861C73.2251 47.1822 72.0959 46.6281 71.0584 45.9013C69.8215 45.0701 68.9787 44.2574 68.9787 42.9359C68.9787 41.2457 70.6226 39.9891 72.7463 39.9891C73.9439 39.9891 75.1113 40.2858 75.8973 40.9722L74.9618 42.2496L74.9616 42.2495ZM83.1763 45.2404C81.769 45.689 81.0537 46.4784 81.0537 47.6946C81.0537 48.636 81.6611 49.277 82.3601 49.277C83.5043 49.277 85.0022 47.8662 84.7877 44.728L83.1763 45.2404ZM84.0921 49.8971C83.3096 50.5381 82.3127 51.1792 81.3181 51.1792C79.6256 51.1792 78.2112 49.8971 78.2112 47.9322C78.2112 45.9011 79.7114 44.7709 82.2281 44.0428L84.7877 43.2951C84.6371 42.3143 83.7443 41.6965 82.8169 41.6965C81.5765 41.6965 80.7082 42.1451 79.95 42.7861L79.0145 41.4403C80.3627 40.3518 81.682 39.9889 83.1763 39.9889C85.1759 39.9889 87.6278 40.6254 87.6278 43.9606V48.3148C87.6278 49.1703 87.7333 50.1765 88.0834 50.9208L85.0265 50.9207C84.8039 50.5566 84.7425 49.94 84.7425 49.3626L84.0921 49.8971ZM90.8588 50.9207H93.7453V35.2253H90.8588V50.9207ZM119.287 45.2404C117.875 45.689 117.16 46.4784 117.16 47.6946C117.16 48.636 117.764 49.277 118.462 49.277C119.606 49.277 121.105 47.8662 120.894 44.728L119.287 45.2404ZM120.192 49.8971C119.415 50.5381 118.416 51.1792 117.418 51.1792C115.728 51.1792 114.315 49.8971 114.315 47.9322C114.315 45.9011 115.813 44.7709 118.332 44.0428L120.894 43.2951C120.735 42.3143 119.851 41.6965 118.912 41.6965C117.68 41.6965 116.81 42.1451 116.052 42.7861L115.119 41.4403C116.464 40.3518 117.789 39.9889 119.288 39.9889C121.278 39.9889 123.727 40.6254 123.727 43.9606V48.3148C123.727 49.1703 123.834 50.1765 124.18 50.9208L121.127 50.9207C120.913 50.5566 120.841 49.94 120.841 49.3626L120.192 49.8971ZM129.822 41.504C130.799 40.4803 132.167 39.9888 133.531 39.9888C136.068 39.9888 137.411 41.352 137.411 44.0427V50.9206L134.528 50.9207V44.3662C134.528 42.8695 133.856 41.8865 132.359 41.8865C130.948 41.8865 129.844 42.8057 129.844 44.5585V50.9206L126.961 50.9207V40.2427H129.822V41.504ZM104.266 49.1227H105.826C107.519 49.1227 108.802 48.2486 108.802 46.585C108.802 44.8322 107.478 44.0857 105.809 44.0857H104.266V49.1227ZM104.266 42.2495H105.224C106.983 42.2495 108.177 41.14 108.177 39.749C108.177 38.4274 107.174 37.8525 105.853 37.8525L104.264 37.8523V42.2495H104.266ZM101.211 50.9612V36.0137H106.699C109.255 36.0137 111.058 37.1661 111.058 39.1948C111.058 41.5852 109.085 42.5705 108.023 42.8464V42.8893C109.91 42.9763 112.011 44.2549 112.011 46.5398C112.011 49.1227 109.818 50.9612 106.246 50.9612H101.211Z" fill="black" fill-opacity="0.6"/>
</svg>
