<svg width="159" height="39" viewBox="0 0 159 39" fill="none" xmlns="http://www.w3.org/2000/svg">
<path d="M59.4536 8.68298H50.6548C50.0527 8.68298 49.5407 9.12041 49.4468 9.7148L45.8881 32.2771C45.8174 32.7223 46.1622 33.1237 46.6138 33.1237H50.8144C51.4165 33.1237 51.9285 32.6862 52.0224 32.0906L52.9822 26.0052C53.0748 25.4095 53.5882 24.9721 54.189 24.9721H56.9744C62.7703 24.9721 66.1154 22.1674 66.9889 16.6094C67.3826 14.1779 67.0057 12.2673 65.8671 10.9293C64.6165 9.46006 62.3985 8.68298 59.4536 8.68298ZM60.4687 16.9234C59.9875 20.0806 57.5752 20.0806 55.2427 20.0806H53.915L54.8464 14.1843C54.9018 13.8279 55.2105 13.5655 55.5708 13.5655H56.1793C57.7682 13.5655 59.267 13.5655 60.0415 14.4712C60.5034 15.0115 60.6449 15.8144 60.4687 16.9234Z" fill="#253B80"/>
<path d="M85.7549 16.8218H81.5414C81.1825 16.8218 80.8724 17.0843 80.8171 17.4406L80.6305 18.6191L80.3359 18.192C79.4237 16.8681 77.3897 16.4255 75.3595 16.4255C70.7035 16.4255 66.7267 19.952 65.9522 24.8988C65.5495 27.3664 66.122 29.7259 67.5218 31.3714C68.8058 32.8844 70.643 33.5148 72.8289 33.5148C76.5804 33.5148 78.6608 31.1026 78.6608 31.1026L78.473 32.2733C78.4022 32.721 78.747 33.1225 79.196 33.1225H82.9914C83.5947 33.1225 84.1042 32.685 84.1994 32.0893L86.4766 17.6683C86.5487 17.2245 86.2052 16.8218 85.7549 16.8218ZM79.8818 25.0223C79.4752 27.4294 77.5647 29.0454 75.1279 29.0454C73.9044 29.0454 72.9266 28.653 72.2988 27.9093C71.6761 27.1708 71.4394 26.1197 71.6375 24.949C72.017 22.5624 73.9597 20.8937 76.3592 20.8937C77.5557 20.8937 78.5283 21.2913 79.169 22.0414C79.811 22.7991 80.0657 23.8567 79.8818 25.0223Z" fill="#253B80"/>
<path d="M108.194 16.8217H103.96C103.556 16.8217 103.176 17.0224 102.947 17.3581L97.1073 25.9601L94.632 17.6939C94.4763 17.1767 93.999 16.8217 93.4586 16.8217H89.2979C88.7923 16.8217 88.4411 17.3157 88.6019 17.7917L93.2657 31.4781L88.8811 37.6677C88.5363 38.1553 88.8837 38.8256 89.4793 38.8256H93.7082C94.1096 38.8256 94.4853 38.6301 94.713 38.3007L108.796 17.9731C109.133 17.4868 108.787 16.8217 108.194 16.8217Z" fill="#253B80"/>
<path d="M122.211 8.68311H113.411C112.811 8.68311 112.298 9.12053 112.205 9.71492L108.646 32.2772C108.575 32.7224 108.92 33.1238 109.369 33.1238H113.885C114.304 33.1238 114.663 32.8176 114.729 32.4007L115.739 26.0053C115.831 25.4096 116.345 24.9722 116.946 24.9722H119.73C125.527 24.9722 128.871 22.1675 129.745 16.6096C130.14 14.178 129.761 12.2674 128.622 10.9294C127.373 9.46018 125.156 8.68311 122.211 8.68311ZM123.226 16.9235C122.747 20.0807 120.334 20.0807 118.001 20.0807H116.674L117.607 14.1844C117.662 13.828 117.968 13.5656 118.33 13.5656H118.938C120.526 13.5656 122.026 13.5656 122.801 14.4713C123.263 15.0117 123.403 15.8145 123.226 16.9235Z" fill="#179BD7"/>
<path d="M148.513 16.8218H144.302C143.941 16.8218 143.633 17.0843 143.579 17.4406L143.393 18.6191L143.097 18.192C142.184 16.8681 140.152 16.4255 138.122 16.4255C133.465 16.4255 129.49 19.952 128.716 24.8988C128.314 27.3664 128.884 29.7259 130.284 31.3714C131.57 32.8844 133.405 33.5148 135.591 33.5148C139.342 33.5148 141.423 31.1026 141.423 31.1026L141.235 32.2733C141.164 32.721 141.509 33.1225 141.961 33.1225H145.755C146.355 33.1225 146.868 32.685 146.961 32.0893L149.24 17.6683C149.309 17.2245 148.965 16.8218 148.513 16.8218ZM142.64 25.0223C142.236 27.4294 140.323 29.0454 137.886 29.0454C136.665 29.0454 135.685 28.653 135.057 27.9093C134.434 27.1708 134.2 26.1197 134.396 24.949C134.778 22.5624 136.718 20.8937 139.117 20.8937C140.314 20.8937 141.286 21.2913 141.927 22.0414C142.572 22.7991 142.826 23.8567 142.64 25.0223Z" fill="#179BD7"/>
<path d="M153.48 9.30176L149.869 32.2771C149.798 32.7222 150.143 33.1236 150.592 33.1236H154.222C154.826 33.1236 155.338 32.6862 155.43 32.0905L158.992 9.52948C159.062 9.08433 158.718 8.68164 158.269 8.68164H154.203C153.844 8.68293 153.535 8.94538 153.48 9.30176Z" fill="#179BD7"/>
<path d="M9.34831 37.5082L10.0212 33.2342L8.52234 33.1995H1.36523L6.33906 1.66218C6.3545 1.56697 6.40467 1.4782 6.478 1.41516C6.55134 1.35212 6.64526 1.31738 6.74304 1.31738H18.8109C22.8173 1.31738 25.5821 2.15107 27.0256 3.79657C27.7023 4.56851 28.1333 5.37518 28.3417 6.2629C28.5604 7.19437 28.5643 8.30724 28.3507 9.66455L28.3353 9.76362V10.6333L29.012 11.0167C29.582 11.3191 30.0348 11.6651 30.3822 12.0614C30.9612 12.7214 31.3355 13.5602 31.4938 14.5547C31.6572 15.5776 31.6031 16.7946 31.3355 18.1725C31.0268 19.7576 30.5276 21.1381 29.8534 22.2677C29.2333 23.3085 28.4434 24.1718 27.5055 24.8408C26.61 25.4763 25.546 25.9588 24.3431 26.2675C23.1775 26.5712 21.8485 26.7243 20.3908 26.7243H19.4516C18.78 26.7243 18.1278 26.9662 17.6157 27.3997C17.1024 27.8423 16.7627 28.447 16.6585 29.1083L16.5878 29.4929L15.399 37.0257L15.3449 37.3023C15.3308 37.3898 15.3063 37.4336 15.2703 37.4632C15.2382 37.4902 15.1918 37.5082 15.1468 37.5082H9.34831Z" fill="#253B80"/>
<path d="M29.6518 9.86401C29.6158 10.0943 29.5746 10.3297 29.5283 10.5716C27.9369 18.7425 22.4922 21.5652 15.5383 21.5652H11.9977C11.1473 21.5652 10.4307 22.1828 10.2982 23.0216L8.48542 34.5183L7.97209 37.7771C7.88589 38.3278 8.31045 38.8244 8.86624 38.8244H15.1459C15.8895 38.8244 16.5212 38.284 16.6383 37.5507L16.7001 37.2316L17.8824 29.7284L17.9583 29.3167C18.0741 28.5808 18.7071 28.0405 19.4507 28.0405H20.3899C26.474 28.0405 31.2369 25.5703 32.6289 18.4222C33.2104 15.4361 32.9094 12.9427 31.3707 11.1892C30.9049 10.6604 30.3273 10.2217 29.6518 9.86401Z" fill="#179BD7"/>
<path d="M27.9877 9.20014C27.7445 9.12938 27.4936 9.06505 27.2363 9.00715C26.9777 8.95055 26.7127 8.90037 26.44 8.85663C25.4853 8.70224 24.4394 8.62891 23.3188 8.62891H13.86C13.6271 8.62891 13.4059 8.68166 13.2077 8.77686C12.7716 8.98657 12.4474 9.39955 12.3689 9.90517L10.3567 22.6498L10.2988 23.0216C10.4313 22.1828 11.148 21.5652 11.9984 21.5652H15.539C22.4928 21.5652 27.9375 18.7412 29.529 10.5716C29.5766 10.3297 29.6165 10.0943 29.6525 9.864C29.2498 9.65043 28.8136 9.46774 28.3441 9.31207C28.2283 9.27347 28.1086 9.23616 27.9877 9.20014Z" fill="#222D65"/>
<path d="M12.3689 9.90519C12.4474 9.39957 12.7716 8.98659 13.2078 8.77817C13.4072 8.68296 13.6272 8.63021 13.86 8.63021H23.3188C24.4394 8.63021 25.4854 8.70355 26.44 8.85793C26.7127 8.90168 26.9778 8.95185 27.2364 9.00846C27.4937 9.06635 27.7445 9.13068 27.9877 9.20144C28.1086 9.23747 28.2283 9.27478 28.3454 9.31209C28.815 9.46776 29.2511 9.65174 29.6538 9.86402C30.1273 6.84447 29.6499 4.78856 28.0173 2.92691C26.2174 0.877431 22.9689 0 18.812 0H6.74411C5.89498 0 5.17065 0.617546 5.03942 1.45767L0.0128512 33.3192C-0.0862136 33.9496 0.400104 34.5183 1.03566 34.5183H8.4861L10.3568 22.6498L12.3689 9.90519Z" fill="#253B80"/>
</svg>
