<svg width="22" height="20" viewBox="0 0 22 20" fill="none" xmlns="http://www.w3.org/2000/svg">
<path d="M4.94623 5.0058C5.21145 5.0058 5.4658 4.90044 5.65334 4.7129C5.84088 4.52537 5.94623 4.27101 5.94623 4.0058V3.4158L8.82623 6.2958C9.38873 6.8576 10.1512 7.17316 10.9462 7.17316C11.7412 7.17316 12.5037 6.8576 13.0662 6.2958L17.6562 1.7058C17.8425 1.51844 17.947 1.26498 17.947 1.0008C17.947 0.736612 17.8425 0.483161 17.6562 0.295798C17.5633 0.20207 17.4527 0.127676 17.3308 0.0769069C17.209 0.0261382 17.0782 0 16.9462 0C16.8142 0 16.6835 0.0261382 16.5617 0.0769069C16.4398 0.127676 16.3292 0.20207 16.2362 0.295798L11.6562 4.8758C11.5633 4.96953 11.4527 5.04392 11.3308 5.09469C11.209 5.14546 11.0782 5.1716 10.9462 5.1716C10.8142 5.1716 10.6835 5.14546 10.5617 5.09469C10.4398 5.04392 10.3292 4.96953 10.2362 4.8758L7.35623 2.0058H7.94623C8.21145 2.0058 8.4658 1.90044 8.65334 1.71291C8.84088 1.52537 8.94623 1.27101 8.94623 1.0058C8.94623 0.740582 8.84088 0.486228 8.65334 0.298692C8.4658 0.111155 8.21145 0.00579834 7.94623 0.00579834H4.94623C4.74994 0.00595832 4.55804 0.0638843 4.39444 0.172357C4.23084 0.280829 4.10279 0.43505 4.02623 0.615798C3.97585 0.739785 3.94873 0.871989 3.94623 1.0058V4.0058C3.94623 4.27101 4.05159 4.52537 4.23913 4.7129C4.42666 4.90044 4.68102 5.0058 4.94623 5.0058ZM20.8862 12.3658C18.0387 10.1683 14.5431 8.97638 10.9462 8.97638C7.34933 8.97638 3.85382 10.1683 1.00623 12.3658C0.705873 12.608 0.461117 12.9119 0.288575 13.257C0.116032 13.6021 0.0197402 13.9802 0.00623294 14.3658C-0.0198807 14.7466 0.0362628 15.1286 0.17085 15.4857C0.305438 15.8429 0.515317 16.1669 0.786233 16.4358L2.54623 18.2358C2.99597 18.6854 3.59093 18.9604 4.22477 19.0117C4.85862 19.063 5.49005 18.8872 6.00623 18.5158L6.47623 18.1958C6.79627 17.9893 7.13043 17.8055 7.47623 17.6458C7.90131 17.4581 8.24018 17.1173 8.42546 16.6911C8.61074 16.265 8.62887 15.7847 8.47623 15.3458L8.38623 15.1058C10.0984 14.666 11.894 14.666 13.6062 15.1058L13.5162 15.3458C13.3636 15.7847 13.3817 16.265 13.567 16.6911C13.7523 17.1173 14.0912 17.4581 14.5162 17.6458C14.862 17.8055 15.1962 17.9893 15.5162 18.1958L15.9862 18.5158C16.4326 18.8434 16.9725 19.0187 17.5262 19.0158C18.2455 19.0167 18.9359 18.7326 19.4462 18.2258L21.2562 16.4058C21.5097 16.1303 21.7022 15.8044 21.8211 15.4495C21.94 15.0945 21.9827 14.7184 21.9462 14.3458C21.9226 13.9589 21.8157 13.5816 21.6328 13.2399C21.4498 12.8981 21.1951 12.6 20.8862 12.3658ZM19.7462 15.0058L17.9462 16.8158C17.8368 16.9298 17.6911 17.0021 17.5342 17.0204C17.3773 17.0386 17.2189 17.0016 17.0862 16.9158C16.8962 16.7758 16.7062 16.6458 16.4962 16.5158C16.1441 16.2931 15.7802 16.0895 15.4062 15.9058L15.8062 14.8158C15.8963 14.5665 15.8837 14.2916 15.7712 14.0516C15.6587 13.8116 15.4555 13.6261 15.2062 13.5358C12.4611 12.5361 9.45138 12.5361 6.70623 13.5358C6.457 13.6261 6.25379 13.8116 6.14129 14.0516C6.02878 14.2916 6.01617 14.5665 6.10623 14.8158L6.50623 15.9158C6.12714 16.0921 5.75973 16.2925 5.40623 16.5158L4.82623 16.9158C4.69326 17.0112 4.52958 17.0538 4.36697 17.0353C4.20436 17.0168 4.05441 16.9386 3.94623 16.8158L2.14623 15.0058C2.08137 14.942 2.03019 14.8656 1.9958 14.7814C1.96142 14.6971 1.94455 14.6068 1.94623 14.5158C1.95454 14.4131 1.98364 14.3131 2.03177 14.222C2.07991 14.1309 2.14607 14.0505 2.22623 13.9858C4.7255 12.0607 7.79153 11.0168 10.9462 11.0168C14.1009 11.0168 17.167 12.0607 19.6662 13.9858C19.7464 14.0505 19.8126 14.1309 19.8607 14.222C19.9088 14.3131 19.9379 14.4131 19.9462 14.5158C19.9479 14.6068 19.9311 14.6971 19.8967 14.7814C19.8623 14.8656 19.8111 14.942 19.7462 15.0058Z" fill="black"/>
</svg>
