<svg width="209" height="36" viewBox="0 0 209 36" fill="none" xmlns="http://www.w3.org/2000/svg">
<path d="M39.4565 30.2274H34.3262V12.0891H52.7952V30.2274H47.666V15.6128H39.4565V30.2274Z" fill="#60B238"/>
<path d="M55.2832 17.0634V35.0218H60.011V28.8804C61.5954 30.5914 64.1764 30.7207 64.7985 30.7207C69.3075 30.7207 72.0745 27.8433 72.0745 23.6715C72.0745 19.3186 69.3378 16.572 64.8923 16.572C63.7716 16.572 61.5954 16.7534 59.7918 18.6455H59.6988L59.7294 17.0634H55.2832ZM59.7918 23.6193C59.7918 19.9407 62.0625 19.2154 63.4931 19.2154C64.8923 19.2154 67.1619 19.9407 67.1619 23.6193C67.1619 25.9007 66.1985 28.078 63.4931 28.078C60.7257 28.078 59.7918 25.9007 59.7918 23.6193Z" fill="#60B238"/>
<path d="M83.7944 28.6481C82.0539 30.2794 80.3769 30.7208 78.5095 30.7208C73.4101 30.7208 73.2227 26.8853 73.2227 25.3051V17.0635H77.9493V24.6823C77.9493 27.3003 78.8534 28.0782 80.5931 28.0782C83.5767 28.0782 83.7944 25.4087 83.7944 24.4498V17.0635H88.5229V30.2276H83.7944V28.6481Z" fill="#60B238"/>
<path d="M95.3009 24.6823H98.193C100.43 24.6823 100.897 25.3565 100.897 26.2379C100.897 26.8075 100.585 27.5853 98.2516 27.5853H95.3009V24.6823ZM90.5742 17.0635V30.2276H99.9648C103.385 30.2276 105.748 29.5541 105.748 26.8593C105.748 24.7862 104.596 23.8795 101.985 23.4135V23.3352C103.696 23.102 105.189 22.0392 105.189 20.2519C105.189 17.0635 101.457 17.0635 99.9954 17.0635H90.5742ZM95.3009 19.708H97.8487C99.1863 19.708 100.336 19.9151 100.336 21.0025C100.336 22.1957 98.5328 22.2214 97.7557 22.2214H95.3009V19.708Z" fill="#60B238"/>
<path d="M111.72 21.3138C111.72 19.3704 113.771 19.2154 114.612 19.2154C115.141 19.2154 117.098 19.2415 117.162 20.9514C117.162 21.081 117.162 21.1846 117.162 21.3138C117.069 22.6094 115.825 22.3505 112.344 22.7909C109.481 23.1794 106.465 23.9043 106.465 26.9113C106.465 27.9998 106.932 30.7207 111.969 30.7207C113.898 30.7207 116.013 30.2275 117.254 28.9326H117.35L117.753 30.2275H122.727V29.995C121.826 29.8132 121.764 28.9326 121.794 27.507L121.888 21.4945C121.919 19.9668 121.764 16.572 114.643 16.572C112.933 16.572 107.429 16.727 107.211 21.3138H111.72ZM117.193 24.7861C117.193 27.4295 114.891 28.078 113.742 28.078C112.87 28.078 111.315 27.7919 111.315 26.5488C111.315 25.071 113.087 24.7861 114.084 24.6564C115.918 24.3972 115.762 24.4754 117.193 23.9565V24.7861Z" fill="#60B238"/>
<path d="M122.414 19.708V17.0635H137.587V19.708H132.364V30.2276H127.638V19.708H122.414Z" fill="#60B238"/>
<path d="M143.622 15.6129H155.406V12.0892H138.49V30.2276H148.876C153.914 30.2276 157.146 28.4667 157.146 24.7601C157.146 18.9566 150.68 18.8262 148.876 18.8262H143.622V15.6129ZM143.622 22.3507H147.881C149.128 22.3507 151.613 22.4807 151.613 24.6565C151.613 26.3672 149.809 26.7035 147.789 26.7035H143.622V22.3507Z" fill="#60B238"/>
<path d="M163.305 21.3138C163.305 19.3704 165.358 19.2154 166.196 19.2154C166.725 19.2154 168.685 19.2415 168.748 20.9514C168.748 21.081 168.748 21.1846 168.748 21.3138C168.653 22.6094 167.411 22.3505 163.925 22.7909C161.066 23.1794 158.051 23.9043 158.051 26.9113C158.051 27.9998 158.516 30.7207 163.553 30.7207C165.481 30.7207 167.596 30.2275 168.84 28.9326H168.932L169.337 30.2275H174.312V29.995C173.413 29.8132 173.348 28.9326 173.38 27.507L173.473 21.4945C173.504 19.9668 173.348 16.572 166.227 16.572C164.519 16.572 159.013 16.727 158.796 21.3138H163.305ZM168.777 24.7861C168.777 27.4295 166.476 28.078 165.327 28.078C164.456 28.078 162.901 27.7919 162.901 26.5488C162.901 25.071 164.672 24.7861 165.667 24.6564C167.503 24.3972 167.347 24.4754 168.777 23.9565V24.7861Z" fill="#60B238"/>
<path d="M180.219 30.2276H175.492V17.0635H180.219V22.0135H185.91V17.0635H190.636V30.2276H185.91V24.6565H180.219V30.2276Z" fill="#60B238"/>
<path d="M202.578 17.0635H207.831L201.334 23.2305L208.144 30.2276H202.607L197.509 24.4755H197.417V30.2276H192.691V17.0635H197.417V22.3507H197.509L202.578 17.0635Z" fill="#60B238"/>
<path d="M0 30.2748H11.8386V18.4362H0V30.2748Z" fill="#373435"/>
<path d="M24.0325 6.25852C24.0325 10.2841 24.0325 19.9929 24.0325 24.0185C22.9081 24.0185 22.7101 24.0185 21.6174 24.0185C20.5746 15.2353 15.0557 9.71792 6.27099 8.67515C6.27099 7.58248 6.27099 7.3852 6.27099 6.25852C10.2969 6.25852 20.0066 6.25852 24.0325 6.25852ZM0.0117188 0V14.7352H3.1423C11.3805 14.7352 15.5577 18.9116 15.5577 27.1472V30.2778H30.2918V0H0.0117188Z" fill="#60B238"/>
</svg>
