<svg width="44" height="44" viewBox="0 0 44 44" fill="none" xmlns="http://www.w3.org/2000/svg">
<path d="M22 44C34.1503 44 44 34.1503 44 22C44 9.84974 34.1503 0 22 0C9.84974 0 0 9.84974 0 22C0 34.1503 9.84974 44 22 44Z" fill="#00A1F2"/>
<path fill-rule="evenodd" clip-rule="evenodd" d="M18.9972 24.6819L18.7314 28.4135C18.8746 28.4146 19.016 28.3826 19.1448 28.32C19.2735 28.2575 19.3861 28.166 19.4738 28.0528L21.2565 26.3517L24.9512 29.0485C25.0684 29.1518 25.2132 29.2188 25.3678 29.2413C25.5224 29.2638 25.6803 29.2408 25.822 29.1752C25.9638 29.1095 26.0834 29.004 26.1663 28.8715C26.2491 28.7391 26.2916 28.5853 26.2887 28.4291L28.7134 17.0854C28.9282 16.0819 28.3512 15.69 27.6943 15.9408L13.4413 21.3893C12.4684 21.7656 12.4833 22.3065 13.2759 22.5495L16.9197 23.6863L25.3863 18.3946C25.7846 18.1281 26.1468 18.277 25.8489 18.5435L18.9972 24.6819Z" fill="white"/>
</svg>
